# xmcd
# Track frame offsets:
# 150
# 12068
# 29215
# 44280
# 59897
# 72525
# 86408
# 96170
# 110600
# 121750
#
# Disc length: 1780 seconds
# Revision: 0
# Processed by: cddbd v1.4PL0 Copyright (c) Steve Scherf et al.
# Submitted via: VisiTrax 2.9.5.180 - For more info visit www.synapsa.com
#
DISCID=8b06f20a
DTITLE=Milton Wooldridge - Sings Country volume 1
DYEAR=1900
DGENRE=
TTITLE0=The next time
TTITLE1=The warm red wine
TTITLE2=When will I stop loving you
TTITLE3=Back to Alabama
TTITLE4=Sex harassment
TTITLE5=Regret
TTITLE6=Cold and dry
TTITLE7=I need your loving tonight
TTITLE8=Say it's not over yet
TTITLE9=I've never felt like this before
EXTD=
EXTT0=
EXTT1=
EXTT2=
EXTT3=
EXTT4=
EXTT5=
EXTT6=
EXTT7=
EXTT8=
EXTT9=
PLAYORDER=
